<svg xmlns="http://www.w3.org/2000/svg" version="1.1" viewBox="0 0 185 51" width="185px" height="51px">
	<path class="fade" d="M54.407 33.427c-0.409 1.114-1.007 2.065-1.859 2.768 -3.268 2.696-9.153 1.476-15.609-2.604 0.01-0.012 0.021-0.023 0.031-0.035 10.325-12.23 14.46-25.72 9.236-30.13 -2.785-2.351-7.667-1.646-13.182 1.376 4.226-2.092 7.841-2.494 9.941-0.721 4.461 3.766 0.398 15.914-9.075 27.135 -0.046 0.055-0.093 0.107-0.139 0.162 -3.542-2.68-7.152-6.137-10.514-10.211 -1.242-1.505-2.385-3.028-3.444-4.551 1.669 3.703 4.11 7.646 7.251 11.454 1.6 1.939 3.271 3.701 4.962 5.284 -9.04 9.832-19.176 14.88-23.344 11.361 -1.614-1.363-2.098-3.834-1.627-6.951 -0.976 4.453-0.473 8.051 1.781 9.954 4.883 4.122 16.216-1.15 26.107-11.846 6.953 5.543 13.819 7.696 17.337 4.794C54.045 39.192 54.71 36.623 54.407 33.427z"/>
	<g>
		<path class="fill" d="M76.122 33.031c-0.38-0.449-0.57-1.158-0.57-2.125V10.657h-1.762V30.94c0 1.336 0.34 2.39 1.019 3.162 0.679 0.772 1.676 1.158 2.989 1.158h1.52v-1.555h-1.209C77.164 33.704 76.502 33.48 76.122 33.031zM97.734 28.936c0 1.567-0.409 2.787-1.227 3.663 -0.818 0.876-1.975 1.313-3.473 1.313 -1.498 0-2.638-0.426-3.421-1.279 -0.783-0.852-1.175-2.084-1.175-3.697V18.604h-1.762v10.643c0 1.981 0.576 3.524 1.728 4.63 1.106 1.06 2.58 1.589 4.423 1.589 2.027 0 3.663-0.725 4.907-2.177v1.97h1.762V18.604h-1.762V28.936z"/>
		<polygon class="fill" points="120.229 18.604 118.086 18.604 113.94 25.308 109.724 18.604 107.582 18.604 112.972 26.759 107.34 35.259 109.482 35.259 113.94 28.245 118.328 35.259 120.471 35.259 114.838 26.759 "/>
		<path class="fill" d="M129.558 22.163c1.013-1.474 2.488-2.211 4.423-2.211 0.898 0 1.659 0.155 2.281 0.466 0.622 0.311 1.29 0.859 2.004 1.641l1.209-1.106c-0.876-0.968-1.716-1.635-2.522-2.004 -0.807-0.368-1.797-0.553-2.972-0.553 -2.258 0-4.043 0.76-5.356 2.281 -1.313 1.52-1.97 3.605-1.97 6.254 0 2.649 0.656 4.734 1.97 6.254 1.313 1.52 3.098 2.281 5.356 2.281 1.175 0 2.165-0.185 2.972-0.553 0.806-0.368 1.647-1.036 2.522-2.004l-1.209-1.106c-0.714 0.783-1.382 1.33-2.004 1.641 -0.622 0.311-1.382 0.466-2.281 0.466 -1.935 0-3.409-0.737-4.423-2.211 -0.415-0.599-0.708-1.261-0.881-1.987 -0.173-0.726-0.259-1.653-0.259-2.782 0-1.128 0.086-2.056 0.259-2.782C128.85 23.425 129.144 22.763 129.558 22.163zM157.616 20.228c-1.221-1.221-2.764-1.831-4.63-1.831 -1.866 0-3.409 0.611-4.63 1.831 -0.807 0.807-1.353 1.774-1.641 2.903 -0.288 1.129-0.432 2.396-0.432 3.801 0 1.405 0.143 2.673 0.432 3.801 0.288 1.129 0.835 2.096 1.641 2.903 1.221 1.221 2.764 1.831 4.63 1.831 1.866 0 3.409-0.61 4.63-1.831 0.806-0.806 1.353-1.774 1.641-2.903 0.288-1.128 0.432-2.396 0.432-3.801 0-1.405-0.144-2.672-0.432-3.801C158.969 22.003 158.422 21.035 157.616 20.228zM157.65 30.18c-0.185 0.922-0.587 1.693-1.209 2.315 -0.945 0.945-2.096 1.417-3.455 1.417 -1.359 0-2.511-0.472-3.455-1.417 -0.622-0.622-1.025-1.393-1.209-2.315 -0.185-0.921-0.277-2.004-0.277-3.248s0.092-2.326 0.277-3.248c0.184-0.921 0.587-1.693 1.209-2.315 0.944-0.944 2.096-1.417 3.455-1.417 1.359 0 2.511 0.472 3.455 1.417 0.622 0.622 1.025 1.394 1.209 2.315 0.184 0.922 0.276 2.004 0.276 3.248S157.835 29.259 157.65 30.18zM179.626 19.986c-1.083-1.059-2.557-1.589-4.423-1.589 -2.027 0-3.663 0.725-4.907 2.177v-1.97h-1.762v16.655h1.762V24.928c0-1.566 0.415-2.787 1.244-3.663 0.829-0.875 1.981-1.313 3.455-1.313 1.497 0 2.637 0.427 3.421 1.279 0.783 0.852 1.175 2.085 1.175 3.697v10.332h1.762V24.617C181.354 22.636 180.778 21.092 179.626 19.986zM61.817 11.849c-0.703 0.795-1.054 1.849-1.054 3.162v3.594h-0.968l-1.313 1.313h2.281v17.919c0 0.438-0.053 0.826-0.16 1.166 -0.107 0.34-0.266 0.631-0.48 0.873l1.348 1.088c0.351-0.397 0.615-0.859 0.791-1.386 0.176-0.527 0.263-1.119 0.263-1.775V19.917h3.766v-1.313h-3.766v-3.628c0-0.875 0.213-1.555 0.639-2.039 0.426-0.484 1.065-0.726 1.918-0.726h1.209v-1.555h-1.52C63.504 10.657 62.519 11.054 61.817 11.849z"/>
	</g>
	<defs>
		<linearGradient id="fade" x1="100%" y1="100%" x2="0%" y2="0%" > 
			<stop offset="0%" style="stop-color:white;stop-opacity:1" />
			<stop offset="20%" style="stop-color:white;stop-opacity:1" />
			<stop offset="100%" style="stop-color:white;stop-opacity:0" />
		</linearGradient> 
		<style>
			path,
			polygon
			{
				shape-rendering: geometricPrecision;
			}
			.fill
			{
				fill: white;
			}
			.fade
			{
				fill: url(#fade);
			}
		</style>
	</defs>
</svg>