<svg version="1.2" baseProfile="tiny" xmlns="http://www.w3.org/2000/svg" viewBox="-10 -10 304 106">
	<defs>
		<filter id="iot-shadow">
			<feDropShadow out="shadow" dx="-2" dy="-2" stdDeviation="2.5" flood-opacity=".5" />
			<feBlend in="sourceGraphic" in2="shadow" mode="multiply" />
			<feDropShadow out="shine" dx="2" dy="2" stdDeviation="2.5" flood-opacity=".5" flood-color="white" />
			<feBlend in="sourceGraphic" in2="shine" mode="screen" />
		</filter>

		<linearGradient id="iot-fade" x1="0" y1="0" x2="1" y2="1">
	        <stop offset="0%" stop-color="#ddd"/>
	        <stop offset="100%" stop-color="#b2b2b2"/>
		</linearGradient>
		<linearGradient id="iot-fade-hover" x1="0" y1="0" x2="1" y2="1">
	        <stop offset="0%" stop-color="#fff"/>
	        <stop offset="100%" stop-color="#cccccc"/>
		</linearGradient>

		<clipPath id="iot-noise-clip">
			<path d="M238 62l-13-7.5v-15l13-7.5V12c0-5.5-4.5-10-10-10H12C6.5 2 2 6.5 2 12v62c0 5.5 4.5 10 10 10h216c5.5 0 10-4.5 10-10V62z"/>
			<path d="M238 57l-9-5V42l9-5 9 5v10l-9 5z"/>
			<path d="M253.5 84L243 78V66l10.5-6 10.5 6v12l-10.5 6z"/>
			<path d="M267.5 61l-7.5-4.5v-9l7.5-4.5 7.5 4.5v9l-7.5 4.5z"/>
			<path d="M277 78l-5-2.8v-5.5l5-2.7 5 2.7v5.5l-5 2.8z"/>
		</clipPath>
		<filter id="iot-noise">
			<feTurbulence type="fractalNoise" baseFrequency="20" result="noisy" />
			<feColorMatrix in="noisy" type="saturate" values="0"/>
			<feBlend in="SourceGraphic" in2="noisy" mode="multiply" />
		</filter>

		<filter id="iot-bevel">
			<feDropShadow dx="-.5" dy="-.5" stdDeviation=".3" flood-opacity=".5" />
			<feDropShadow dx=".5" dy=".5" stdDeviation=".3" flood-opacity=".5" flood-color="white" />
		</filter>

		<filter id="iot-hex-shadow">
			<feDropShadow out="shadow" dx="2" dy="2" stdDeviation="2" />
			<feBlend in="SourceGraphic" in2="shadow" mode="multiply" />
			<feDropShadow out="shine" dx="-2" dy="-2" stdDeviation="2" flood-color="white" />
			<feBlend in="SourceGraphic" in2="shine" mode="screen" />
		</filter>

		<filter id="hue-shift">
			<feColorMatrix in="SourceGraphic" type="hueRotate" values="221" />
		</filter>

	</defs>
	<style>
		.iotObj .iot-shadow {
			fill: #ddd;
			filter: url(#iot-shadow);
		}
		.iotObj .iot-button {
			fill: #ddd;
			fill: url(#iot-fade);
			filter: url(#iot-noise);
			clip-path: url(#iot-noise-clip);
		}
		.iotObj .iot-bubble-a { fill: #c6d1e0; }
		.iotObj .iot-bubble-b { fill: #b1c5e4; }
		.iotObj .iot-bubble-c { fill: #9ab9e7; }
		.iotObj .iot-bubble-d { fill: #85adeb; }
		.iotObj .iot-border {
			fill: none;
			stroke: #fff;
			stroke-width: 1px;
			stroke-linecap: round;
			stroke-linejoin: round;
			stroke-miterlimit: 10;
			filter: url(#iot-bevel);
		}
		.iotObj .iot-hex {
			fill: #0066ff;
			filter: url(#iot-hex-shadow);
		}
		.iotObj .iot-icon {
			fill: none;
			stroke: #fff;
			stroke-width: 1.25;
			stroke-linecap: round;
			stroke-linejoin: round;
			stroke-miterlimit: 10;
		}
		.iotObj .iot-text {
			filter: url(#iot-bevel);
		}
		.iotObj .iot-text .is-white {
			fill: #ffffff;
		}

		.iotObj:hover .iot-button {
			filter: none;
		}
		.iotObj:hover .iot-bubble-a { fill: #e44c65; }
		.iotObj:hover .iot-bubble-b { fill: #e44c65; }
		.iotObj:hover .iot-bubble-c { fill: #e44c65; }
		.iotObj:hover .iot-bubble-d { fill: #e44c65; }
		.iotObj:hover .iot-hex {
			fill: #e44c65;
		}
	</style>
	<g class="iotObj">
		<g class="iot-shadow">
			<path d="M238 62l-13-7.5v-15l13-7.5V12c0-5.5-4.5-10-10-10H12C6.5 2 2 6.5 2 12v62c0 5.5 4.5 10 10 10h216c5.5 0 10-4.5 10-10V62z"/>
			<path d="M238 57l-9-5V42l9-5 9 5v10l-9 5z"/>
			<path d="M253.5 84L243 78V66l10.5-6 10.5 6v12l-10.5 6z"/>
			<path d="M267.5 61l-7.5-4.5v-9l7.5-4.5 7.5 4.5v9l-7.5 4.5z"/>
			<path d="M277 78l-5-2.8v-5.5l5-2.7 5 2.7v5.5l-5 2.8z"/>
		</g>
		<g class="iot-button">
			<path d="M238 62l-13-7.5v-15l13-7.5V12c0-5.5-4.5-10-10-10H12C6.5 2 2 6.5 2 12v62c0 5.5 4.5 10 10 10h216c5.5 0 10-4.5 10-10V62z"/>
			<path class="iot-bubble-a" d="M238 57l-9-5V42l9-5 9 5v10l-9 5z"/>
			<path class="iot-bubble-b" d="M253.5 84L243 78V66l10.5-6 10.5 6v12l-10.5 6z"/>
			<path class="iot-bubble-c" d="M267.5 61l-7.5-4.5v-9l7.5-4.5 7.5 4.5v9l-7.5 4.5z"/>
			<path class="iot-bubble-d" d="M277 78l-5-2.8v-5.5l5-2.7 5 2.7v5.5l-5 2.8z"/>
		</g>

		<g class="iot-border">
			<path d="M275 73.5v-2l2-1.1 2 1.1v2l-2 1.1zM263 54.8v-5.6l4.5-2.7 4.5 2.7v5.6l-4.5 2.7zM246 76.3v-8.6l7.5-4.2 7.5 4.2v8.6l-7.5 4.2zM232 50.2v-6.4l6-3.4 6 3.4v6.4l-6 3.4z"/>
			<path d="M12 81c-3.9 0-7-3.1-7-7V12c0-3.9 3.1-7 7-7h216c3.9 0 7 3.1 7 7v18.3l-13 7.5v18.5l13 7.5V74c0 3.9-3.1 7-7 7H12z"/>
		</g>

		<path class="iot-hex" d="M16.7 57.5V28.6l24.9-14.5 24.9 14.4v28.9L41.7 71.9l-25-14.4z"/>
		<g class="iot-icon">
			<path d="M35.9 36.5l-3.3-3.3M46.902 36.47v11h-11v-11zM46.9 36.5l2.5-2.5M41.4 47.5v4.6"/>
			<circle cx="41.4" cy="56.2" r="4.2"/>
			<path d="M27.5 28.1l2.2 8 5.9-5.8zM55 28.4l-5.1-.8-2.3 4.6 3.6 3.6 4.6-2.3z"/>
		</g>

		<g class="iot-text">
			<path d="M89.9 39.1c-.3-.3-.4-.9-.4-1.6V22.2h-1.3v15.4c0 1 .3 1.8.8 2.4.5.6 1.3.9 2.3.9h1.2v-1.2h-.9c-.9-.1-1.4-.3-1.7-.6zM106.3 36c0 1.2-.3 2.1-.9 2.8-.6.7-1.5 1-2.6 1s-2-.3-2.6-1c-.6-.6-.9-1.6-.9-2.8v-7.8H98v8.1c0 1.5.4 2.7 1.3 3.5.8.8 2 1.2 3.3 1.2 1.5 0 2.8-.5 3.7-1.6v1.5h1.3V28.2h-1.3V36zM123.3 28.2h-1.6l-3.2 5-3.2-5h-1.6l4.1 6.1-4.3 6.5h1.6l3.4-5.3 3.3 5.3h1.7l-4.3-6.5zM130.3 30.9c.8-1.1 1.9-1.7 3.3-1.7.7 0 1.3.1 1.7.4.5.2 1 .6 1.5 1.2l.9-.8c-.7-.7-1.3-1.2-1.9-1.5-.6-.3-1.4-.4-2.2-.4-1.7 0-3.1.6-4.1 1.7-1 1.2-1.5 2.7-1.5 4.7s.5 3.6 1.5 4.7c1 1.2 2.3 1.7 4.1 1.7.9 0 1.6-.1 2.2-.4.6-.3 1.2-.8 1.9-1.5l-.9-.8c-.5.6-1 1-1.5 1.2-.5.2-1 .4-1.7.4-1.5 0-2.6-.6-3.3-1.7-.3-.5-.5-1-.7-1.5-.1-.5-.2-1.3-.2-2.1 0-.9.1-1.6.2-2.1.2-.6.4-1.1.7-1.5zM151.6 29.4c-.9-.9-2.1-1.4-3.5-1.4s-2.6.5-3.5 1.4c-.6.6-1 1.3-1.2 2.2-.2.9-.3 1.8-.3 2.9 0 1.1.1 2 .3 2.9.2.9.6 1.6 1.2 2.2.9.9 2.1 1.4 3.5 1.4s2.6-.5 3.5-1.4c.6-.6 1-1.3 1.2-2.2.2-.9.3-1.8.3-2.9 0-1.1-.1-2-.3-2.9-.2-.9-.6-1.6-1.2-2.2zm0 7.5c-.1.7-.4 1.3-.9 1.8-.7.7-1.6 1.1-2.6 1.1s-1.9-.4-2.6-1.1c-.5-.5-.8-1.1-.9-1.8-.1-.7-.2-1.5-.2-2.5s.1-1.8.2-2.5.4-1.3.9-1.8c.7-.7 1.6-1.1 2.6-1.1s1.9.4 2.6 1.1c.5.5.8 1.1.9 1.8.1.7.2 1.5.2 2.5s0 1.8-.2 2.5zM168.2 29.2c-.8-.8-1.9-1.2-3.3-1.2-1.5 0-2.8.5-3.7 1.6v-1.5h-1.3v12.6h1.3V33c0-1.2.3-2.1.9-2.8.6-.7 1.5-1 2.6-1s2 .3 2.6 1c.6.6.9 1.6.9 2.8v7.8h1.3v-8.1c.1-1.5-.4-2.6-1.3-3.5zM79.1 23.1c-.5.6-.8 1.4-.8 2.4v2.7h-.7l-1 1h1.7v13.6c0 .3 0 .6-.1.9-.1.3-.2.5-.4.7l1 .8c.3-.3.5-.7.6-1 .1-.4.2-.8.2-1.3V29.2h2.9v-1h-2.9v-2.7c0-.7.2-1.2.5-1.5.3-.4.8-.5 1.5-.5h.9v-1.2h-1.2c-1-.1-1.7.2-2.2.8z"/>
			<path class="is-white" d="M80.7 61.8l4.9-9.7H87l-6 11.5h-1l-2.4-11.5h1.3l1.8 9.7zM89.1 63.6h-1.3l2-11.5h1.3l-2 11.5zm1.1-14.8c0-.5.3-.8.9-.9.3 0 .5.1.6.3.1.1.2.3.2.6-.1.3-.2.5-.3.6-.1.1-.3.2-.6.3-.6-.2-.9-.5-.8-.9zM100.2 63.6v-.8l.1-.8c-.5.6-1.1 1-1.8 1.4-.7.3-1.4.5-2.2.5-1 0-1.8-.3-2.4-.9-.6-.6-.9-1.4-.8-2.3.1-.8.3-1.4.8-2 .5-.6 1.1-1 2-1.3.9-.3 1.8-.5 2.9-.5h2.4l.2-1.3c.1-.8-.1-1.4-.5-1.9s-1.1-.7-1.9-.8c-.8 0-1.6.2-2.2.6-.6.4-1 1-1.2 1.7h-1.2c.1-1 .7-1.8 1.6-2.5s2-.9 3.2-.9c1.2 0 2.1.4 2.7 1.1.6.7.9 1.6.8 2.7l-1 5.8-.1.9c0 .4 0 .8.1 1.1v.1h-1.5zm-3.7-.9c.8 0 1.5-.2 2.2-.6.7-.4 1.3-1 1.8-1.7l.4-2.6h-2c-1.3 0-2.3.2-3.2.7-.8.5-1.3 1.1-1.4 2-.1.6.1 1.1.5 1.5.4.5 1 .7 1.7.7zM120.3 59.7c.2-1.3-.6-2.3-2.1-2.9l-2-.7-.7-.3c-2-.9-3-2.1-2.8-3.8.1-.8.4-1.5.9-2.2.5-.6 1.2-1.1 2.1-1.4s1.8-.5 2.7-.5c.9 0 1.7.2 2.5.6.7.4 1.3 1 1.6 1.6s.5 1.5.4 2.4h-1.3c.1-1.1-.1-1.9-.7-2.5-.6-.6-1.4-1-2.5-1s-2.1.2-2.9.8c-.8.5-1.3 1.3-1.4 2.2-.1.7.1 1.4.6 1.9s1.4 1 2.7 1.3c1.6.5 2.8 1.2 3.4 1.9s.9 1.6.8 2.6c-.1.9-.4 1.6-.9 2.2s-1.2 1.1-2.1 1.4c-.9.3-1.8.5-2.8.5-1 0-1.9-.2-2.7-.6-.8-.4-1.4-.9-1.8-1.6-.4-.7-.6-1.5-.5-2.4h1.3c-.1 1.1.2 1.9.9 2.6.7.6 1.6 1 2.8 1s2.2-.3 3-.8c1-.6 1.4-1.3 1.5-2.3zM131.2 63.6v-.8l.1-.8c-.5.6-1.1 1-1.8 1.4-.7.3-1.4.5-2.2.5-1 0-1.8-.3-2.4-.9-.6-.6-.9-1.4-.8-2.3.1-.8.3-1.4.8-2 .5-.6 1.1-1 2-1.3.9-.3 1.8-.5 2.9-.5h2.4l.2-1.3c.1-.8-.1-1.4-.5-1.9s-1.1-.7-1.9-.8c-.8 0-1.6.2-2.2.6s-1 1-1.2 1.7h-1.2c.1-1 .7-1.8 1.6-2.5s2-.9 3.2-.9c1.2 0 2.1.4 2.7 1.1.6.7.9 1.6.8 2.7l-1 5.8-.1.9c0 .4 0 .8.1 1.1v.1h-1.5zm-3.7-.9c.8 0 1.5-.2 2.2-.6.7-.4 1.3-1 1.8-1.7l.4-2.6h-2c-1.3 0-2.3.2-3.2.7-.8.5-1.3 1.1-1.4 2-.1.6.1 1.1.5 1.5.4.5 1 .7 1.7.7zM140.5 49.1l-.5 3h2.3l-.2 1h-2.3l-1.3 7.7v.7c0 .8.4 1.2 1.1 1.2.2 0 .6 0 1-.1l-.1 1c-.4.1-.8.2-1.3.2-.7 0-1.3-.3-1.6-.8s-.5-1.2-.4-2.2l1.3-7.7h-2.1l.2-1h2l.5-3h1.4zM148.1 63.8c-.9 0-1.7-.3-2.4-.8s-1.2-1.2-1.5-2-.4-1.8-.3-2.8v-.4c.1-1.1.4-2.1.9-3 .5-1 1.2-1.7 2-2.2.8-.5 1.7-.8 2.6-.7.9 0 1.6.2 2.2.7.6.5 1 1.1 1.3 1.9s.4 1.7.3 2.7l-.1.8h-8v.3c-.1.8 0 1.5.2 2.2s.6 1.3 1.1 1.7 1.1.6 1.8.6 1.3-.1 1.8-.4c.5-.3 1.1-.7 1.5-1.1l.7.6c-.5.7-1.1 1.2-1.8 1.5-.7.3-1.5.5-2.3.4zm1.3-10.8c-.9 0-1.8.3-2.5 1s-1.3 1.7-1.7 2.9h6.7v-.2c.1-1 0-1.9-.5-2.6-.4-.7-1.1-1.1-2-1.1zM156.5 63.6h-1.3l2.8-16.4h1.3l-2.8 16.4zM161.9 63.6h-1.3l2.8-16.4h1.3l-2.8 16.4zM167.3 63.6H166l2-11.5h1.3l-2 11.5zm1.1-14.8c0-.5.3-.8.9-.9.3 0 .5.1.6.3.1.1.2.3.2.6-.1.3-.2.5-.3.6-.1.1-.3.2-.6.3-.6-.2-.8-.5-.8-.9zM175.7 49.1l-.5 3h2.3l-.2 1H175l-1.3 7.7v.7c0 .8.4 1.2 1.1 1.2.2 0 .6 0 1-.1l-.1 1c-.4.1-.8.2-1.3.2-.7 0-1.3-.3-1.6-.8-.3-.5-.5-1.2-.4-2.2l1.3-7.7h-2.1l.2-1h2l.5-3h1.4zM183.3 63.8c-.9 0-1.7-.3-2.4-.8s-1.2-1.2-1.5-2-.4-1.8-.3-2.8v-.4c.1-1.1.4-2.1.9-3 .5-1 1.2-1.7 2-2.2.8-.5 1.7-.8 2.6-.7.9 0 1.6.2 2.2.7.6.5 1 1.1 1.3 1.9.3.8.4 1.7.3 2.7l-.1.8h-8v.3c-.1.8 0 1.5.2 2.2s.6 1.3 1.1 1.7 1.1.6 1.8.6 1.3-.1 1.8-.4 1.1-.7 1.5-1.1l.7.6c-.5.7-1.1 1.2-1.8 1.5-.7.3-1.4.5-2.3.4zm1.3-10.8c-.9 0-1.8.3-2.5 1s-1.3 1.7-1.7 2.9h6.7v-.2c.1-1 0-1.9-.5-2.6-.4-.7-1.1-1.1-2-1.1z"/>
			<path d="M177.8 22.3h11v2.5h-4v13.4h4v2.5h-11v-2.5h3.9V24.9h-3.9v-2.6zM191.2 33.8c0-1 .1-1.9.4-2.8.3-.9.7-1.6 1.3-2.2.5-.6 1.2-1.1 2-1.5s1.7-.5 2.7-.5c1 0 1.9.2 2.7.5s1.5.8 2 1.5c.5.6 1 1.4 1.2 2.2.3.9.4 1.8.4 2.8v.3c0 1-.1 1.9-.4 2.8-.3.9-.7 1.6-1.2 2.2-.5.6-1.2 1.1-2 1.5-.8.4-1.7.5-2.7.5-1 0-1.9-.2-2.7-.5-.8-.4-1.5-.8-2-1.5-.5-.6-1-1.4-1.3-2.2-.3-.9-.4-1.8-.4-2.8v-.3zm3 .3c0 .6.1 1.2.2 1.8.1.5.3 1 .6 1.4.3.4.6.7 1 1s.9.4 1.5.4 1.1-.1 1.5-.4c.4-.2.8-.6 1-1 .3-.4.5-.9.6-1.4s.2-1.1.2-1.8v-.3c0-.6-.1-1.2-.2-1.7s-.3-1-.6-1.4c-.3-.4-.6-.7-1-1-.4-.2-.9-.4-1.5-.4s-1.1.1-1.5.4c-.4.2-.8.6-1 1-.3.4-.5.9-.6 1.4-.1.5-.2 1.1-.2 1.7v.3zM219 24.9h-5.7v15.9h-3V24.9h-5.6v-2.5H219v2.5z"/>
		</g>
	</g>
</svg>