<svg xmlns="http://www.w3.org/2000/svg" viewBox="0 0 500 500">
  <defs>
    <style>
      .a, .b, .c, .d, .e, .f, .g, .h {
        fill: none;
        stroke-linecap: round;
        stroke-linejoin: round;
        stroke-width: 4px;
      }

      .a {
        stroke: #1072ba;
      }

      .b, .c {
        stroke: #894498;
      }

      .c, .e, .g {
        stroke-dasharray: 3.71 7.41;
      }

      .d, .e {
        stroke: #079247;
      }

      .f, .g {
        stroke: #ee2d30;
      }

      .h {
        stroke: #fff;
      }

      .i {
        fill: #894498;
      }
    </style>
  </defs>
  <title>offering</title>
  <g>
    <path class="a" d="M332.7,242.51l-14.48-10.86a51.45,51.45,0,0,0,0-13.58l14.48-10.86c1.51-1.2,1.66-2.72.46-4.53l-13.58-23.53a3.11,3.11,0,0,0-4.07-1.36l-16.75,6.79a51.3,51.3,0,0,0-11.31-6.79l-2.72-17.65c-.6-1.81-1.66-2.71-3.16-2.71H254.41a2.9,2.9,0,0,0-3.17,2.71l-2.71,18.1a54.09,54.09,0,0,0-11.31,6.34l-16.75-6.79q-2.26-.9-4.07,1.81l-13.58,23.08c-1.21,1.81-1.06,3.33.45,4.53l14.48,10.86a51.45,51.45,0,0,0,0,13.58l-14.48,10.86c-1.51,1.21-1.66,2.71-.45,4.52l13.58,23.54a3.1,3.1,0,0,0,4.07,1.35l16.75-6.79a50.31,50.31,0,0,0,11.31,6.79l2.71,17.65c.61,1.81,1.66,2.72,3.17,2.72h27.16a2.9,2.9,0,0,0,3.16-2.72l2.72-18.1a53.45,53.45,0,0,0,11.31-6.34l16.75,6.79c1.5.61,2.86,0,4.07-1.81L333.16,247C334.36,245.22,334.21,243.72,332.7,242.51Zm-51.13-4.08a18.61,18.61,0,1,1,5.88-13.57A18.64,18.64,0,0,1,281.57,238.43Z"/>
    <g>
      <line class="b" x1="132.56" y1="281.56" x2="132.56" y2="283.71"/>
      <line class="c" x1="132.56" y1="291.12" x2="132.56" y2="320.77"/>
      <line class="b" x1="132.56" y1="324.47" x2="132.56" y2="326.62"/>
    </g>
    <g>
      <line class="d" x1="68.19" y1="281.56" x2="68.19" y2="283.71"/>
      <line class="e" x1="68.19" y1="291.12" x2="68.19" y2="320.77"/>
      <line class="d" x1="68.19" y1="324.47" x2="68.19" y2="326.62"/>
    </g>
    <g>
      <line class="f" x1="196.93" y1="281.56" x2="196.93" y2="283.71"/>
      <line class="g" x1="196.93" y1="291.12" x2="196.93" y2="320.77"/>
      <line class="f" x1="196.93" y1="324.47" x2="196.93" y2="326.62"/>
    </g>
    <path class="d" d="M56.39,338.42a11.8,11.8,0,1,1,23.6,0"/>
    <path class="b" d="M120.76,338.42a11.8,11.8,0,0,1,23.6,0"/>
    <path class="f" d="M185.13,338.42a11.8,11.8,0,1,1,23.6,0"/>
    <circle class="b" cx="132.56" cy="338.42" r="3.75"/>
    <g>
      <g>
        <polyline class="h" points="69.06 242.46 75.06 224.16 88.13 184.31 106.93 242.46"/>
        <line class="h" x1="100.98" y1="224.05" x2="75.06" y2="224.05"/>
      </g>
      <path class="h" d="M121.71,242.46V184.84h0S152,180.05,152,199.25s-30.32,14.82-30.32,14.82"/>
      <line class="h" x1="172.46" y1="242.46" x2="172.46" y2="184.31"/>
    </g>
    <g>
      <line class="h" x1="364.19" y1="378.53" x2="364.19" y2="412.63"/>
      <line class="h" x1="297.31" y1="412.63" x2="431.08" y2="412.63"/>
    </g>
    <g>
      <rect class="b" x="310.16" y="304.39" width="108.07" height="32.91" rx="16.45"/>
      <g>
        <path class="i" d="M342.62,324.44c0,.63.2.88.6.88a1.7,1.7,0,0,0,.61-.11l.63,2.16a5.73,5.73,0,0,1-2.06.38c-1.79,0-2.83-1.06-2.83-3v-13.2l3.05-.33Z"/>
        <path class="i" d="M351.23,315.7c3.4,0,5.44,2.26,5.44,6,0,3.61-2,6-5.45,6s-5.45-2.25-5.45-6c0-3.61,2-6,5.46-6Zm-2.28,6c0,2.63.77,3.76,2.27,3.76s2.27-1.16,2.27-3.75-.77-3.76-2.26-3.76S349,319.13,349,321.72Z"/>
        <path class="i" d="M369.79,316.67a9.54,9.54,0,0,1-3.28.43,3,3,0,0,1,2.11,2.92c0,2.2-1.78,3.81-4.68,3.81a5.17,5.17,0,0,1-1.33-.14.88.88,0,0,0-.42.75c0,.37.2.74,1.31.74h1.73c2.58,0,4.23,1.37,4.23,3.26,0,2.3-2,3.69-5.79,3.69-4.17,0-5.31-1.35-5.31-3.62h2.74c0,1.07.46,1.53,2.63,1.53s2.66-.57,2.66-1.39-.58-1.24-1.77-1.24h-1.69c-2.38,0-3.37-1-3.37-2.22a2.64,2.64,0,0,1,1.34-2.14,3.33,3.33,0,0,1-2-3.23c0-2.52,2-4.12,4.84-4.12a9,9,0,0,0,5.32-1.36Zm-7.85,3.11a1.83,1.83,0,0,0,1.87,2.09c1.22,0,1.88-.75,1.88-2.13s-.64-2-1.9-2A1.8,1.8,0,0,0,361.94,319.78Z"/>
        <path class="i" d="M375.33,312a1.86,1.86,0,1,1-1.87-1.78A1.76,1.76,0,0,1,375.33,312ZM372,327.41V316H375v11.37Z"/>
        <path class="i" d="M388.18,319.14v8.27h-3.05v-7.76c0-1.32-.48-1.68-1.24-1.68s-1.57.59-2.2,1.59v7.85h-3.05V316h2.65l.23,1.44A4.27,4.27,0,0,1,385,315.7C387,315.7,388.18,317,388.18,319.14Z"/>
      </g>
    </g>
    <path class="h" d="M252.55,144.06a63.3,63.3,0,0,0-86.6-25A63.29,63.29,0,0,0,49.36,164.57a51.49,51.49,0,0,0,9.18,101.94v0H197.82"/>
    <path class="h" d="M236.5,300.54v65.27a12.76,12.76,0,0,0,12.71,12.72h230a12.76,12.76,0,0,0,12.72-12.72V208.27a12.75,12.75,0,0,0-12.72-12.72H344.58"/>
  </g>
</svg>
