<svg xmlns="http://www.w3.org/2000/svg" viewBox="0 0 500 500">
  <defs>
    <style>
      .a, .b {
        fill: none;
        stroke-linecap: round;
        stroke-linejoin: round;
        stroke-width: 4px;
      }

      .a {
        stroke: #ffffff;
      }

      .b {
        stroke: #079247;
      }
    </style>
  </defs>
  <title>offering</title>
  <g>
    <line class="a" x1="246.64" y1="280.17" x2="253.36" y2="280.17"/>
    <path class="b" d="M322.65,156.15V122.51a11.8,11.8,0,0,0-11.77-11.77h-99a11.81,11.81,0,0,0-11.78,11.77v76.7"/>
    <line class="a" x1="246.64" y1="330.85" x2="253.36" y2="330.85"/>
    <path class="a" d="M333.56,156.15V121.5A21.66,21.66,0,0,0,311.9,99.84H241.31l-5-27.1c-.65-6.3-4.42-11-8.86-11H215.4c-4.44,0-8.21,4.67-8.87,11l-5.41,29.42a21.63,21.63,0,0,0-12,19.34v77.71"/>
    <path class="a" d="M253.36,293.49a14.46,14.46,0,0,0,0,24.05"/>
  </g>
  <g>
    <rect class="a" x="94.25" y="207.21" width="144.39" height="231.02" rx="21.66"/>
    <rect class="a" x="94.25" y="207.21" width="144.39" height="231.02" rx="21.66"/>
    <rect class="b" x="105.15" y="218.12" width="122.58" height="126.43" rx="10.17"/>
    <path class="a" d="M205,385.49h22.69V367.07a11.53,11.53,0,0,0-11.5-11.5H205Z"/>
    <rect class="a" x="138.74" y="355.57" width="55.4" height="29.92"/>
    <path class="a" d="M105.15,385.49h22.69V355.57H116.66a11.54,11.54,0,0,0-11.51,11.5Z"/>
    <path class="a" d="M227.73,396.39H205v30.94h11.19a11.53,11.53,0,0,0,11.5-11.5Z"/>
    <path class="a" d="M127.84,396.39H105.15v19.44a11.54,11.54,0,0,0,11.51,11.5h11.18Z"/>
    <g>
      <rect class="a" x="171.89" y="396.39" width="22.25" height="30.94"/>
      <rect class="a" x="138.74" y="396.39" width="22.25" height="30.94"/>
    </g>
  </g>
  <g>
    <rect class="a" x="261.36" y="164.15" width="144.39" height="231.02" rx="21.66"/>
    <circle class="a" cx="333.56" cy="369.82" r="14.44"/>
    <rect class="b" x="272.27" y="175.05" width="122.58" height="169.43" rx="11.77"/>
  </g>
</svg>
