<svg xmlns="http://www.w3.org/2000/svg" viewBox="0 0 500 500">
  <defs>
    <style>
      .a, .b, .c, .d {
        fill: none;
        stroke-linecap: round;
        stroke-linejoin: round;
        stroke-width: 4px;
      }

      .a {
        stroke: #1072ba;
      }

      .b {
        stroke: #fff;
      }

      .c {
        stroke: #079247;
      }

      .d {
        stroke: #894498;
      }
    </style>
  </defs>
  <title>offering</title>
  <g>
    <path class="a" d="M416.92,257.37l-14.48-10.86a51.45,51.45,0,0,0,0-13.58l14.48-10.86q2.26-1.8.45-4.52L403.8,194a3.13,3.13,0,0,0-4.08-1.35L383,199.44a51.23,51.23,0,0,0-11.31-6.78L369,175c-.61-1.81-1.66-2.72-3.17-2.72H338.63a2.91,2.91,0,0,0-3.17,2.72l-2.71,18.1a54.48,54.48,0,0,0-11.32,6.33l-16.74-6.78q-2.26-.9-4.07,1.81L287,217.55q-1.82,2.72.45,4.52L302,232.93a51.45,51.45,0,0,0,0,13.58l-14.48,10.86q-2.26,1.81-.45,4.53l13.58,23.53a3.1,3.1,0,0,0,4.07,1.36L321.43,280a51,51,0,0,0,11.32,6.79l2.71,17.65c.6,1.81,1.66,2.71,3.17,2.71h27.15a2.9,2.9,0,0,0,3.17-2.71l2.72-18.11A53.47,53.47,0,0,0,383,280l16.74,6.79c1.51.61,2.87,0,4.08-1.81l13.57-23.08Q419.18,259.18,416.92,257.37Zm-51.14-4.07a18.6,18.6,0,1,1,5.89-13.58A18.65,18.65,0,0,1,365.78,253.3Z"/>
    <path class="b" d="M101.94,331.21H347.08a12.4,12.4,0,0,1,8,3.93l11.07,12.7c1.89,2.16,1.06,3.93-1.83,3.93H84.66c-2.88,0-3.71-1.77-1.82-3.93l11.07-12.7A12.38,12.38,0,0,1,101.94,331.21Z"/>
    <g>
      <polygon class="c" points="224.51 198.74 193.79 239.72 224.51 280.7 255.23 239.72 224.51 198.74"/>
      <polyline class="c" points="224.51 198.74 214.46 239.72 224.51 280.7"/>
    </g>
    <polygon class="d" points="205.09 198.84 190.26 198.84 190.26 184.01 181.46 184.01 181.46 198.84 166.63 198.84 166.63 207.65 181.46 207.65 181.46 222.48 190.26 222.48 190.26 207.65 205.09 207.65 205.09 198.84"/>
    <path class="b" d="M352.15,159.84a12.76,12.76,0,0,0-12.66-11.61h-230A12.77,12.77,0,0,0,96.81,161V318.49a12.76,12.76,0,0,0,12.72,12.72h230a12.76,12.76,0,0,0,12.66-11.61"/>
  </g>
</svg>
