<svg xmlns="http://www.w3.org/2000/svg" viewBox="0 0 500 500">
  <defs>
    <style>
      .a, .b {
        fill: none;
        stroke-linecap: round;
        stroke-linejoin: round;
        stroke-width: 4px;
      }

      .a {
        stroke: #fff;
      }

      .b {
        stroke: #894498;
      }
    </style>
  </defs>
  <title>offering</title>
  <g>
    <g>
      <path class="a" d="M231.43,225.89l-15.25-15.25,16-16a10,10,0,0,0,0-14.14l-70.6-70.61a10,10,0,0,0-14.14,0l-37.54,37.54a10,10,0,0,0,0,14.14l70.61,70.6a10,10,0,0,0,14.14,0l16-16,15.25,15.25Z"/>
      <line class="a" x1="152.43" y1="116.62" x2="116.62" y2="152.43"/>
      <line class="a" x1="170.6" y1="134.79" x2="134.79" y2="170.6"/>
      <line class="a" x1="188.77" y1="152.96" x2="152.96" y2="188.77"/>
      <line class="a" x1="206.94" y1="171.14" x2="171.14" y2="206.94"/>
      <line class="a" x1="225.12" y1="189.31" x2="189.31" y2="225.12"/>
      <line class="a" x1="134.52" y1="134.52" x2="207.21" y2="207.21"/>
    </g>
    <g>
      <path class="a" d="M268.57,274.11l15.25,15.25-16,16a10,10,0,0,0,0,14.14l70.6,70.61a10,10,0,0,0,14.14,0l37.54-37.54a10,10,0,0,0,0-14.14l-70.61-70.6a10,10,0,0,0-14.14,0l-16,16-15.25-15.25Z"/>
      <line class="a" x1="347.57" y1="383.38" x2="383.38" y2="347.57"/>
      <line class="a" x1="329.4" y1="365.21" x2="365.21" y2="329.4"/>
      <line class="a" x1="311.23" y1="347.04" x2="347.04" y2="311.23"/>
      <line class="a" x1="293.06" y1="328.86" x2="328.86" y2="293.06"/>
      <line class="a" x1="274.88" y1="310.69" x2="310.69" y2="274.88"/>
      <line class="a" x1="365.48" y1="365.48" x2="292.79" y2="292.79"/>
    </g>
    <path class="a" d="M164.66,347l10-10L228,390.45a85.34,85.34,0,0,0,7.48-83.25l89.82-89.83a14.25,14.25,0,0,0,0-20.1l-22.58-22.59a14.26,14.26,0,0,0-20.11,0l-89.82,89.83A85.33,85.33,0,0,0,109.56,272L163,325.41l-9.9,9.9a13.9,13.9,0,0,0-2.43-.23,14.22,14.22,0,1,0,14.21,14.21A13.71,13.71,0,0,0,164.66,347Z"/>
    <line class="a" x1="200.95" y1="271.51" x2="228.5" y2="299.06"/>
    <line class="a" x1="287.33" y1="185.13" x2="314.88" y2="212.68"/>
    <circle class="b" cx="150.66" cy="349.29" r="5.5"/>
    <line class="b" x1="154.54" y1="345.41" x2="199.52" y2="300.43"/>
    <line class="b" x1="229.87" y1="270.08" x2="285.9" y2="214.05"/>
  </g>
</svg>
