<svg xmlns="http://www.w3.org/2000/svg" viewBox="0 0 500 500">
  <defs>
    <style>
      .a, .b {
        fill: none;
        stroke-linecap: round;
        stroke-linejoin: round;
        stroke-width: 4px;
      }

      .a {
        stroke: #fff;
      }

      .b {
        stroke: #894498;
      }
    </style>
  </defs>
  <title>offering</title>
  <g>
    <path class="a" d="M301.44,168.76a59.91,59.91,0,0,0-102.88,0A25.79,25.79,0,0,0,180.1,193.4v18.5a25.78,25.78,0,0,0,23.6,25.6,59.93,59.93,0,0,0,92.6,0,25.78,25.78,0,0,0,23.6-25.6V193.4A25.79,25.79,0,0,0,301.44,168.76Z"/>
    <path class="a" d="M294.84,271.8l-22.37,89.58-15-63.65,15-26.21H227.53l15,26.21-15,63.65L205.16,271.8a62.79,62.79,0,0,0-60,62.62v19.47a22.47,22.47,0,0,0,22.46,22.47H332.38a22.47,22.47,0,0,0,22.46-22.47V334.42a62.79,62.79,0,0,0-60-62.62Z"/>
    <path class="b" d="M162.64,211a87.36,87.36,0,0,1,174.72,0v13a22.15,22.15,0,0,1-22.08,22.08H243.45a2.34,2.34,0,0,1-2.33-2.34h0a2.34,2.34,0,0,1,2.33-2.33h13.81"/>
  </g>
</svg>
